<?xml version="1.0" encoding="utf-8"?>
<!-- Generator: Adobe Illustrator 23.0.0, SVG Export Plug-In . SVG Version: 6.00 Build 0)  -->
<svg version="1.1" id="图层_1" xmlns="http://www.w3.org/2000/svg" xmlns:xlink="http://www.w3.org/1999/xlink" x="0px" y="0px"
	 viewBox="0 0 181 200" style="enable-background:new 0 0 181 200;" xml:space="preserve">
<style type="text/css">
	.st0{fill-rule:evenodd;clip-rule:evenodd;fill:url(#SVGID_1_);}
	.st1{clip-path:url(#SVGID_3_);fill-rule:evenodd;clip-rule:evenodd;fill:#F5B081;}
</style>
<linearGradient id="SVGID_1_" gradientUnits="userSpaceOnUse" x1="177.8914" y1="202.3801" x2="135.8914" y2="121.9095" gradientTransform="matrix(1 0 0 -1 0 202)">
	<stop  offset="0" style="stop-color:#FFB480"/>
	<stop  offset="1" style="stop-color:#F0863D"/>
</linearGradient>
<path class="st0" d="M70,0h111v200H0L70,0z"/>
<g>
	<g>
		<defs>
			<polygon id="SVGID_2_" points="70,0 181,0 181,200 0,200 			"/>
		</defs>
		<clipPath id="SVGID_3_">
			<use xlink:href="#SVGID_2_"  style="overflow:visible;"/>
		</clipPath>
		<path class="st1" d="M145,51.5L145,51.5L145,51.5c-29.8,0-53.9,24.4-53.9,54.4c0,14.6,5.7,27.8,14.9,37.5l15.8,21.5l23.3,31.7
			l23.3-31.7l15.8-21.5c9.2-9.8,14.9-23,14.9-37.5C198.9,75.9,174.7,51.5,145,51.5z M145,129.4L145,129.4L145,129.4
			c-12.8,0-23.3-10.5-23.3-23.5s10.4-23.5,23.3-23.5l0,0l0,0c12.8,0,23.3,10.5,23.3,23.5C168.2,118.9,157.8,129.4,145,129.4z"/>
	</g>
</g>
</svg>
